<mxfile host="app.diagrams.net" modified="2023-05-04T14:10:50.993Z" agent="Mozilla/5.0 (Windows NT 10.0; Win64; x64) AppleWebKit/537.36 (KHTML, like Gecko) Chrome/112.0.0.0 Safari/537.36" version="21.2.8" etag="Op9EuzGsJThHkitUL7C8" type="github">
  <diagram name="PÃ¡gina-1" id="NV6yznWJC9eklFLm3_MW">
    <mxGraphModel>
      <root>
        <mxCell id="0" />
        <mxCell id="1" parent="0" />
      </root>
    </mxGraphModel>
  </diagram>
</mxfile>
